<?xml version="1.0" encoding="UTF-8" standalone="no"?>
<svg
   xmlns:dc="http://purl.org/dc/elements/1.1/"
   xmlns:cc="http://creativecommons.org/ns#"
   xmlns:rdf="http://www.w3.org/1999/02/22-rdf-syntax-ns#"
   xmlns:svg="http://www.w3.org/2000/svg"
   xmlns="http://www.w3.org/2000/svg"
   height="546.15649"
   width="540.99786"
   xml:space="preserve"
   viewBox="0 0 540.99786 546.15649"
   y="0px"
   x="0px"
   id="Layer_1"
   version="1.1"><metadata
     id="metadata5387"><rdf:RDF><cc:Work
         rdf:about=""><dc:format>image/svg+xml</dc:format><dc:type
           rdf:resource="http://purl.org/dc/dcmitype/StillImage" /><dc:title></dc:title></cc:Work></rdf:RDF></metadata><defs
     id="defs5385" /><style
     id="style5358"
     type="text/css">
	.st0{fill:#1281B1;}
	.st1{fill:#FFFFFF;}
	.st2{fill:none;stroke:#1281B1;stroke-width:20;stroke-miterlimit:10;}
</style><g
     transform="translate(-154.56295,-46.655011)"
     id="XMLID_3_"><g
       id="g5361"><path
         style="fill:#1281b1"
         id="path5363"
         d="m 476.5,261 0,46 -23.5,0 c -1.7,0 -3,-1.3 -3,-3 l 0,-40 c 0,-1.7 1.3,-3 3,-3 l 23.5,0 z"
         class="st0" /><path
         style="fill:#1281b1"
         id="path5365"
         d="m 476.5,307 0,47 c 0,5.5 -4.5,10 -10,10 l -47.5,0 c -5.5,0 -10,-4.5 -10,-10 l 0,-139 c 0,-5.5 4.5,-10 10,-10 l 47.5,0 c 5.5,0 10,4.5 10,10 l 0,46 -23.5,0 c -1.7,0 -3,1.3 -3,3 l 0,40 c 0,1.7 1.3,3 3,3 l 23.5,0 z"
         class="st0" /><path
         style="fill:#ffffff"
         id="path5367"
         d="m 260,356 c -5.6,0 -10,4.5 -10,10 l 0,26 c 0,5.6 4.5,10 10,10 l 45.4,0 c 5.5,0 10,-4.5 10,-10 l 0,-26 c 0,-5.5 -4.5,-10 -10,-10 l -45.4,0 z m 419.3,-42.1 c 10.6,18.9 7.8,42.5 -7,58.4 L 492.1,566.8 c -14.7,15.9 -38,20.5 -57.7,11.4 L 193.6,466.9 c -19.7,-9.1 -31.2,-29.8 -28.7,-51.3 l 31.4,-263.4 c 2.6,-21.5 18.7,-38.9 39.9,-43.1 L 496.4,57.6 c 21.3,-4.2 42.8,5.8 53.4,24.7 L 679.3,313.9 Z M 563,354 563,215 c 0,-5.5 -4.5,-10 -10,-10 l -48.2,0 c -5.5,0 -10,4.5 -10,10 l 0,46 -18.3,0 0,-46 c 0,-5.5 -4.5,-10 -10,-10 l -47.5,0 c -5.5,0 -10,4.5 -10,10 l 0,139 c 0,5.5 4.5,10 10,10 l 47.5,0 c 5.5,0 10,-4.5 10,-10 l 0,-47 18.3,0 0,47 c 0,5.5 4.5,10 10,10 l 48.2,0 c 5.5,0 10,-4.5 10,-10 z m -171.5,0 0,-139 c 0,-5.5 -4.5,-10 -10.1,-10 l -47.4,0 c -5.5,0 -10,4.5 -10,10 l 0,139 c 0,5.5 4.5,10 10,10 l 47.4,0 c 5.6,0 10.1,-4.5 10.1,-10 z"
         class="st1" /><path
         style="fill:#1281b1"
         id="path5369"
         d="m 517.5,264 0,40 c 0,1.7 -1.4,3 -3,3 l -19.7,0 0,-46 19.7,0 c 1.7,0 3,1.3 3,3 z"
         class="st0" /><path
         style="fill:#1281b1"
         id="path5371"
         d="m 563,215 0,139 c 0,5.5 -4.5,10 -10,10 l -48.2,0 c -5.5,0 -10,-4.5 -10,-10 l 0,-47 19.7,0 c 1.6,0 3,-1.3 3,-3 l 0,-40 c 0,-1.7 -1.4,-3 -3,-3 l -19.7,0 0,-46 c 0,-5.5 4.5,-10 10,-10 l 48.2,0 c 5.5,0 10,4.5 10,10 z"
         class="st0" /><path
         style="fill:#1281b1"
         id="path5373"
         d="m 391.5,215 0,139 c 0,5.5 -4.5,10 -10.1,10 l -47.4,0 c -5.5,0 -10,-4.5 -10,-10 l 0,-139 c 0,-5.5 4.5,-10 10,-10 l 47.4,0 c 5.6,0 10.1,4.5 10.1,10 z"
         class="st0" /><rect
         style="fill:#1281b1"
         id="rect5375"
         height="46"
         width="18.299999"
         class="st0"
         y="261"
         x="476.5" /><path
         style="fill:#1281b1"
         id="path5377"
         d="m 260,402 c -5.6,0 -10,-4.5 -10,-10 l 0,-26 c 0,-5.5 4.5,-10 10,-10 l 45.4,0 c 5.5,0 10,4.5 10,10 l 0,26 c 0,5.6 -4.5,10 -10,10 l -45.4,0 z"
         class="st0" /></g><g
       id="g5379"><path
         style="fill:none;stroke:#1281b1;stroke-width:20;stroke-miterlimit:10"
         id="path5381"
         d="M 434.4,578.2 193.6,466.9 c -19.7,-9.1 -31.2,-29.8 -28.7,-51.3 l 31.4,-263.4 c 2.6,-21.5 18.7,-38.9 39.9,-43.1 L 496.4,57.6 c 21.3,-4.2 42.8,5.8 53.4,24.7 l 129.4,231.6 c 10.6,18.9 7.8,42.5 -7,58.4 L 492.1,566.8 c -14.7,15.9 -38,20.5 -57.7,11.4 z"
         class="st2" /></g></g></svg>