<?xml version="1.0" encoding="utf-8"?>
<!-- Generator: Adobe Illustrator 21.1.0, SVG Export Plug-In . SVG Version: 6.00 Build 0)  -->
<svg version="1.1" id="Layer_1" xmlns="http://www.w3.org/2000/svg" xmlns:xlink="http://www.w3.org/1999/xlink" x="0px" y="0px"
	 viewBox="0 0 546 552" style="enable-background:new 0 0 546 552;" xml:space="preserve">
<style type="text/css">
	.st0{fill:none;}
	.st1{fill:#99CCFF;stroke:#000000;stroke-width:5;stroke-miterlimit:10;}
</style>
<g>
	<path class="st0" d="M228.8,162.3h-47.4c-5.5,0-10,4.5-10,10v139c0,5.5,4.5,10,10,10h47.4c5.6,0,10.1-4.5,10.1-10v-139
		C238.9,166.8,234.4,162.3,228.8,162.3z"/>
	<path class="st0" d="M400.4,162.3h-48.2c-5.5,0-10,4.5-10,10v46h-18.3v-46c0-5.5-4.5-10-10-10h-47.5c-5.5,0-10,4.5-10,10v139
		c0,5.5,4.5,10,10,10h47.5c5.5,0,10-4.5,10-10v-47h18.3v47c0,5.5,4.5,10,10,10h48.2c5.5,0,10-4.5,10-10v-139
		C410.4,166.8,405.9,162.3,400.4,162.3z"/>
	<path class="st1" d="M526.7,271.2L397.2,39.6c-10.6-18.9-32.1-28.9-53.4-24.7L83.6,66.4C62.4,70.6,46.3,88,43.7,109.5L12.3,372.9
		c-2.5,21.5,9,42.2,28.7,51.3l240.8,111.3c19.7,9.1,43,4.5,57.7-11.4l180.2-194.5C534.5,313.7,537.3,290.1,526.7,271.2z M170,353.3
		c0,4.8-4.5,8.7-9.9,8.7h-45.1c-5.5,0-9.9-3.8-9.9-8.7v-22.6c0-4.8,4.4-8.7,9.9-8.7h45.1c5.5,0,9.9,3.9,9.9,9.7l0,22.6V353.3z
		 M239,311c0,5.5-4.5,10-10.2,10H181c-5.5,0-10-4.5-10-10V172c0-5.5,4.5-10,10-10h47.8c5.6,0,10.2,4.5,10.2,10V311z M405,311
		c0,5.5-4.5,10-10,10h-48c-5.5,0-10-4.5-10-10v-47h-18v47c0,5.5-4.5,10-10,10h-48c-5.5,0-10-4.5-10-10V172c0-5.5,4.5-10,10-10h48
		c5.5,0,10,4.5,10,10v46h18v-46c0-5.5,4.5-10,10-10h48c5.5,0,10,4.5,10,10V311z"/>
</g>
</svg>
