<?xml version="1.0" encoding="utf-8"?>
<!-- Generator: Adobe Illustrator 21.1.0, SVG Export Plug-In . SVG Version: 6.00 Build 0)  -->
<svg version="1.1" id="Layer_1" xmlns="http://www.w3.org/2000/svg" xmlns:xlink="http://www.w3.org/1999/xlink" x="0px" y="0px"
	 viewBox="0 0 596 589" style="enable-background:new 0 0 596 589;" xml:space="preserve">
<style type="text/css">
	.st0{fill:none;}
	.st1{fill:#00B2EE;}
</style>
<g>
	<path class="st0" d="M255.8,183.3h-47.4c-5.5,0-10,4.5-10,10v139c0,5.5,4.5,10,10,10h47.4c5.6,0,10.1-4.5,10.1-10v-139
		C265.9,187.8,261.4,183.3,255.8,183.3z"/>
	<path class="st0" d="M427.4,183.3h-48.2c-5.5,0-10,4.5-10,10v46h-18.3v-46c0-5.5-4.5-10-10-10h-47.5c-5.5,0-10,4.5-10,10v139
		c0,5.5,4.5,10,10,10h47.5c5.5,0,10-4.5,10-10v-47h18.3v47c0,5.5,4.5,10,10,10h48.2c5.5,0,10-4.5,10-10v-139
		C437.4,187.8,432.9,183.3,427.4,183.3z"/>
	<path class="st1" d="M553.7,292.2L424.2,60.6c-10.6-18.9-32.1-28.9-53.4-24.7L110.6,87.4c-21.2,4.2-37.3,21.6-39.9,43.1L39.3,393.9
		c-2.5,21.5,9,42.2,28.7,51.3l240.8,111.3c19.7,9.1,43,4.5,57.7-11.4l180.2-194.5C561.5,334.7,564.3,311.1,553.7,292.2z
		 M196.8,373.6c0,4.8-4.5,8.7-10,8.7h-45.4c-5.5,0-10-3.8-10-8.7V351c0-4.8,4.4-8.7,10-8.7h45.4c5.5,0,10,3.9,10,8.7L196.8,373.6
		L196.8,373.6z M265.9,332.3c0,5.5-4.5,10-10.1,10h-47.4c-5.5,0-10-4.5-10-10v-139c0-5.5,4.5-10,10-10h47.4c5.6,0,10.1,4.5,10.1,10
		V332.3z M432.4,332.3c0,5.5-4.5,10-10,10h-48.2c-5.5,0-10-4.5-10-10v-47h-18.3v47c0,5.5-4.5,10-10,10h-47.5c-5.5,0-10-4.5-10-10
		v-139c0-5.5,4.5-10,10-10h47.5c5.5,0,10,4.5,10,10v46h18.3v-46c0-5.5,4.5-10,10-10h48.2c5.5,0,10,4.5,10,10V332.3z"/>
</g>
</svg>
