<?xml version="1.0" encoding="utf-8"?>
<!-- Generator: Adobe Illustrator 21.1.0, SVG Export Plug-In . SVG Version: 6.00 Build 0)  -->
<svg version="1.1" id="Layer_1" xmlns="http://www.w3.org/2000/svg" xmlns:xlink="http://www.w3.org/1999/xlink" x="0px" y="0px"
	 viewBox="0 0 785.5 795.7" style="enable-background:new 0 0 785.5 795.7;" xml:space="preserve">
<style type="text/css">
	.st0{fill:#99CCFF;}
	.st1{fill:#FFFFFF;}
</style>
<path class="st0" d="M502.5,8.7L775.7,268c8.2,7.8,11.6,19.3,9,30.3l-88,366.3c-2.6,11-10.9,19.7-21.7,22.9l-361.2,107
	c-10.8,3.2-22.5,0.4-30.7-7.4L9.8,527.7c-8.2-7.8-11.6-19.3-9-30.3l88-366.3c2.6-11,10.9-19.7,21.7-22.9l361.2-107
	C482.6-1.9,494.3,0.9,502.5,8.7z"/>
<g>
	<rect x="242.8" y="198.8" transform="matrix(0.866 -0.5 0.5 0.866 -63.063 208.9901)" class="st1" width="231.3" height="46.7"/>
</g>
<g>
	<rect x="305.3" y="261.8" transform="matrix(0.866 -0.5 0.5 0.866 -91.1645 230.0921)" class="st1" width="157" height="46.7"/>
</g>
<g>
	<rect x="338.7" y="325" transform="matrix(0.866 -0.5 0.5 0.866 -118.8476 253.2351)" class="st1" width="148.9" height="46.7"/>
</g>
<g>
	<rect x="367.5" y="387.7" transform="matrix(0.866 -0.5 0.5 0.866 -146.1762 276.5626)" class="st1" width="151" height="46.7"/>
</g>
<g>
	<rect x="275.8" y="488.8" transform="matrix(0.866 -0.5 0.5 0.866 -201.8862 270.8539)" class="st1" width="257.4" height="46.7"/>
</g>
<g>
	<rect x="347" y="550.4" transform="matrix(0.866 -0.5 0.5 0.866 -228.413 295.0553)" class="st1" width="178.8" height="46.7"/>
</g>
<g>
	<rect x="240.8" y="484.1" transform="matrix(0.866 -0.5 0.5 0.866 -216.6979 206.0952)" class="st1" width="70.8" height="46.7"/>
</g>
</svg>
