<?xml version="1.0" encoding="utf-8"?>
<!-- Generator: Adobe Illustrator 21.1.0, SVG Export Plug-In . SVG Version: 6.00 Build 0)  -->
<svg version="1.1" id="Layer_1" xmlns="http://www.w3.org/2000/svg" xmlns:xlink="http://www.w3.org/1999/xlink" x="0px" y="0px"
	 viewBox="0 0 392.2 372.5" style="enable-background:new 0 0 392.2 372.5;" xml:space="preserve">
<style type="text/css">
	.st0{fill:#99CCFF;}
	.st1{fill:#FFFFFF;}
</style>
<path class="st0" d="M281.7,356.9L151.9,372c-23.5,2.7-46.7-7.3-60.9-26.3l-78-104.8C-1,221.9-4,196.8,5.4,175L57.3,55.1
	c9.4-21.7,29.7-36.8,53.2-39.6L240.2,0.4c23.5-2.7,46.7,7.3,60.9,26.3l78,104.8c14.1,19,17.1,44.1,7.7,65.9l-51.8,119.9
	C325.5,339.1,305.2,354.2,281.7,356.9z"/>
<path class="st1" d="M263.4,230.1l-15.4,3.7c0,0,0,0,0,0L212.9,85.9c0,0,0,0,0,0l15.4-3.7c0,0,0,0,0,0L263.4,230.1
	C263.4,230.1,263.4,230.1,263.4,230.1z"/>
<polygon class="st1" points="170.9,312.7 168.7,303.4 168.7,303.4 235.9,287.4 235.9,287.4 238.1,296.8 238.1,296.8 171,312.7 "/>
<rect x="178.5" y="250" transform="matrix(0.973 -0.2307 0.2307 0.973 -56.2895 54.4153)" class="st1" width="52" height="35.8"/>
<polygon class="st1" points="171.4,275.6 136.4,283.9 136.4,283.9 132.3,266.6 132.3,266.6 167.3,258.3 167.3,258.3 171.4,275.6 "/>
<rect x="128.3" y="239.7" transform="matrix(0.973 -0.2307 0.2307 0.973 -53.6848 38.3858)" class="st1" width="18" height="18"/>
<rect x="204.4" y="178.8" transform="matrix(0.973 -0.2307 0.2307 0.973 -45.0022 56.797)" class="st1" width="31.8" height="84"/>
<rect x="209.1" y="61.8" transform="matrix(0.973 -0.2307 0.2307 0.973 -10.2111 51.9741)" class="st1" width="16" height="15.7"/>
<rect x="153.6" y="259.7" transform="matrix(0.973 -0.2307 0.2307 0.973 -59.6755 45.0176)" class="st1" width="18" height="36"/>
<rect x="251.1" y="238.9" transform="matrix(0.973 -0.2307 0.2307 0.973 -49.9379 66.4414)" class="st1" width="16" height="15.7"/>
<rect x="180.7" y="67.6" transform="matrix(0.973 -0.2307 0.2307 0.973 -22.5194 48.6094)" class="st1" width="31.8" height="106"/>
<rect x="241.3" y="266.9" transform="matrix(0.973 -0.2307 0.2307 0.973 -56.6667 64.9362)" class="st1" width="16" height="15.7"/>
</svg>
